<mxfile host="app.diagrams.net" modified="2023-12-21T23:04:59.421Z" agent="Mozilla/5.0 (Windows NT 10.0; Win64; x64) AppleWebKit/537.36 (KHTML, like Gecko) Chrome/120.0.0.0 Safari/537.36" etag="dqmztRJxfl9jmelfLsGu" version="22.1.11" type="github">
  <diagram name="Strona-1" id="kTBdSVZCgxqGdSbCh6Is">
    <mxGraphModel dx="1195" dy="622" grid="1" gridSize="10" guides="1" tooltips="1" connect="1" arrows="1" fold="1" page="1" pageScale="1" pageWidth="827" pageHeight="1169" math="0" shadow="0">
      <root>
        <mxCell id="0" />
        <mxCell id="1" parent="0" />
        <mxCell id="VSXg3xIbWFbzHlxD9bAN-1" value="Menu:&lt;br&gt;Id&lt;br&gt;Title" style="rounded=1;whiteSpace=wrap;html=1;" vertex="1" parent="1">
          <mxGeometry x="250" y="180" width="120" height="60" as="geometry" />
        </mxCell>
        <mxCell id="VSXg3xIbWFbzHlxD9bAN-2" value="Budget Position:&lt;br&gt;Id:&lt;br&gt;Title:&lt;br&gt;Category:&lt;br&gt;Amount:&lt;br&gt;Data:&lt;br&gt;Account:&lt;br&gt;Date:" style="rounded=1;whiteSpace=wrap;html=1;" vertex="1" parent="1">
          <mxGeometry x="420" y="140" width="200" height="140" as="geometry" />
        </mxCell>
      </root>
    </mxGraphModel>
  </diagram>
</mxfile>
